<svg width="223" height="34" viewBox="0 0 223 34" fill="none" xmlns="http://www.w3.org/2000/svg">
<path d="M3.28979 18.5043V9H0C0.0806529 13.1833 0.163428 17.3688 3.28979 18.5043Z" fill="white"/>
<path d="M15.0696 9H11.7798C11.576 11.9651 12.2255 15.7833 11.455 18.1796C10.1561 15.6624 9.13944 12.8586 9.17977 9H5.88998C5.9303 11.4769 6.25504 13.6694 6.86418 15.5414C3.89912 16.9613 3.57227 21.0237 3.57227 25.3704H6.86418C7.06793 22.3226 6.41634 18.3855 7.18891 15.8661C8.44752 18.5468 9.5045 21.3908 9.46205 25.3704H12.754C12.754 22.9742 12.3465 20.9833 11.7798 19.1559C14.2185 17.0865 15.354 13.7522 15.0696 9.00212V9Z" fill="white"/>
<path d="M23.2072 9.01282H27.6686L33.6348 25.4278H29.7274L28.456 21.5904H22.3986L21.1506 25.4278H17.2432L23.2072 9.01282ZM27.554 18.8397L26.0513 14.2616C25.8433 13.5442 25.612 12.7823 25.4507 11.9482H25.404C25.266 12.7802 25.0347 13.5442 24.8033 14.2616L23.3006 18.8397H27.554Z" fill="white"/>
<path d="M35.2412 25.4278V9.01282H46.4774V11.9736H39.1486V15.7643H46.0614V18.6784H39.1486V25.4299H35.2412V25.4278Z" fill="white"/>
<path d="M48.4688 25.4278V9.01282H52.3762V25.4278H48.4688Z" fill="white"/>
<path d="M61.376 25V8.2H65.432C67.304 8.2 68.936 8.552 70.328 9.256C71.72 9.944 72.792 10.928 73.544 12.208C74.312 13.472 74.696 14.936 74.696 16.6C74.696 18.264 74.312 19.736 73.544 21.016C72.792 22.28 71.72 23.264 70.328 23.968C68.936 24.656 67.304 25 65.432 25H61.376ZM65.432 24.064C67.208 24.064 68.712 23.736 69.944 23.08C71.192 22.424 72.128 21.536 72.752 20.416C73.392 19.28 73.712 18.008 73.712 16.6C73.712 15.192 73.392 13.928 72.752 12.808C72.128 11.672 71.192 10.776 69.944 10.12C68.712 9.464 67.208 9.136 65.432 9.136H62.336V24.064H65.432ZM79.3516 16.72V24.064H86.9356V25H78.3916V8.2H86.6956V9.136H79.3516V15.784H86.4556V16.72H79.3516ZM95.8233 23.176L101.247 8.2H102.255L96.1353 25H95.5113L89.3913 8.2H90.3993L95.8233 23.176ZM106.281 16.72V24.064H113.865V25H105.321V8.2H113.625V9.136H106.281V15.784H113.385V16.72H106.281ZM126.305 25H118.001V8.2H118.961V24.064H126.305V25ZM135.939 25.24C134.387 25.24 132.963 24.856 131.667 24.088C130.387 23.32 129.371 22.28 128.619 20.968C127.883 19.64 127.515 18.184 127.515 16.6C127.515 15.016 127.883 13.568 128.619 12.256C129.371 10.928 130.387 9.88 131.667 9.112C132.963 8.344 134.387 7.96 135.939 7.96C137.491 7.96 138.907 8.344 140.187 9.112C141.483 9.88 142.507 10.928 143.259 12.256C144.011 13.568 144.387 15.016 144.387 16.6C144.387 18.184 144.011 19.64 143.259 20.968C142.507 22.28 141.483 23.32 140.187 24.088C138.907 24.856 137.491 25.24 135.939 25.24ZM135.939 24.304C137.315 24.304 138.571 23.968 139.707 23.296C140.859 22.608 141.763 21.68 142.419 20.512C143.075 19.328 143.403 18.024 143.403 16.6C143.403 15.176 143.075 13.88 142.419 12.712C141.763 11.528 140.859 10.6 139.707 9.928C138.571 9.24 137.315 8.896 135.939 8.896C134.563 8.896 133.307 9.24 132.171 9.928C131.035 10.6 130.139 11.528 129.483 12.712C128.827 13.88 128.499 15.176 128.499 16.6C128.499 18.024 128.827 19.328 129.483 20.512C130.139 21.68 131.035 22.608 132.171 23.296C133.307 23.968 134.563 24.304 135.939 24.304ZM152.487 8.2C153.511 8.2 154.415 8.4 155.199 8.8C155.983 9.2 156.583 9.752 156.999 10.456C157.431 11.144 157.647 11.928 157.647 12.808C157.647 13.688 157.431 14.48 156.999 15.184C156.583 15.872 155.983 16.416 155.199 16.816C154.415 17.216 153.511 17.416 152.487 17.416H149.055V25H148.095V8.2H152.487ZM152.487 16.48C153.783 16.48 154.807 16.136 155.559 15.448C156.311 14.744 156.687 13.864 156.687 12.808C156.687 11.752 156.311 10.88 155.559 10.192C154.807 9.488 153.783 9.136 152.487 9.136H149.055V16.48H152.487ZM176.317 8.2L178.285 25H177.325L175.645 10.48L169.693 25H169.117L163.165 10.432L161.485 25H160.525L162.493 8.2H163.213L169.429 23.344L175.621 8.2H176.317ZM183.367 16.72V24.064H190.951V25H182.407V8.2H190.711V9.136H183.367V15.784H190.471V16.72H183.367ZM207.855 23.224V8.2H208.815V25H208.143L196.047 9.976V25H195.087V8.2H195.759L207.855 23.224ZM217.348 25H216.388V9.136H211.876V8.2H221.86V9.136H217.348V25Z" fill="white"/>
</svg>
