<svg width="243" height="37" viewBox="0 0 243 37" fill="none" xmlns="http://www.w3.org/2000/svg">
<path d="M39.1711 28.093L40.9711 21.665H41.0571L42.7711 28.093H39.1711ZM31.3711 35.551H37.1141L37.9711 32.551H43.8851L44.6571 35.551H50.6571L43.8851 14.808H38.2281L31.3711 35.551ZM51.8571 35.55H57.6861V27.665H65.0581V22.693H57.6861V20.122H66.3431V14.808H51.8571V35.55ZM74.1411 14.808H68.3981V35.55H74.1411V14.808Z" fill="#1E1818"/>
<path d="M6.943 20.978V0.921044H0C0.171 9.75004 0.343 18.578 6.943 20.978ZM31.8 0.920044H24.857C24.429 7.17804 25.8 15.235 24.172 20.292C21.429 14.978 19.286 9.06404 19.372 0.921044H12.429C12.514 6.14904 13.2 10.778 14.486 14.721C8.229 17.721 7.543 26.292 7.543 35.464H14.486C14.914 29.035 13.543 20.721 15.172 15.407C17.829 21.064 20.057 27.064 19.972 35.464H26.914C26.914 30.407 26.057 26.207 24.857 22.35C30 17.978 32.4 10.95 31.8 0.920044Z" fill="#00ADEE"/>
<path d="M83.7422 14.808C86.3992 14.893 88.4563 15.751 89.8283 17.465C91.1993 19.179 91.8853 21.75 91.8853 25.179C91.8853 28.608 91.1993 31.179 89.8283 32.893C88.4563 34.608 86.4852 35.465 83.7422 35.551H77.6562V14.808H83.7422ZM82.8853 33.836C84.1713 33.836 85.1993 33.665 86.1423 33.322C87.0852 32.979 87.7713 32.465 88.3713 31.779C88.9713 31.093 89.3993 30.151 89.6562 29.122C89.9132 28.008 90.0853 26.722 90.0853 25.179C90.0853 23.636 89.9132 22.351 89.6562 21.236C89.3993 20.122 88.9713 19.265 88.3713 18.579C87.7713 17.893 86.9993 17.379 86.1423 17.036C85.1993 16.693 84.1713 16.522 82.8853 16.522H79.2853V33.836H82.8853ZM105.599 14.808V16.522H95.1423V23.979H104.914V25.693H95.1423V33.836H105.771V35.551H93.4283V14.808H105.599ZM108.857 14.808L114.6 33.322H114.685L120.343 14.808H122.143L115.628 35.465H113.657L107.143 14.808H108.857ZM135.341 14.808V16.522H124.884V23.979H134.656V25.693H124.884V33.836H135.427V35.551H123.17V14.808H135.341ZM138.086 14.808V33.836H147.943V35.551H136.457V14.808H138.086ZM147.256 21.065C147.599 19.779 148.114 18.665 148.799 17.636C149.458 16.6468 150.339 15.825 151.371 15.236C152.399 14.636 153.599 14.379 154.971 14.379C156.342 14.379 157.542 14.636 158.571 15.236C159.603 15.825 160.484 16.6468 161.142 17.636C161.844 18.6852 162.365 19.8441 162.685 21.065C163.028 22.35 163.199 23.722 163.199 25.179C163.199 26.636 163.028 28.008 162.685 29.293C162.365 30.5139 161.844 31.6729 161.142 32.722C160.457 33.665 159.599 34.522 158.571 35.122C157.542 35.722 156.342 35.979 154.971 35.979C153.599 35.979 152.399 35.722 151.371 35.122C150.339 34.533 149.458 33.7112 148.799 32.722C148.114 31.779 147.599 30.579 147.256 29.293C146.907 27.9499 146.734 26.5669 146.742 25.179C146.742 23.722 146.914 22.35 147.256 21.065ZM148.799 28.522C149.056 29.636 149.485 30.579 149.999 31.436C150.503 32.2822 151.21 32.9893 152.056 33.493C152.914 34.008 153.857 34.265 155.057 34.265C156.257 34.265 157.199 34.008 158.057 33.493C158.903 32.9893 159.61 32.2822 160.114 31.436C160.628 30.579 161.057 29.636 161.314 28.522C161.571 27.408 161.657 26.293 161.657 25.179C161.657 24.065 161.571 22.95 161.314 21.836C161.057 20.722 160.628 19.779 160.114 18.922C159.61 18.0758 158.903 17.3688 158.057 16.865C157.199 16.35 156.257 16.093 155.057 16.093C153.857 16.093 152.914 16.35 152.056 16.865C151.21 17.3688 150.503 18.0758 149.999 18.922C149.485 19.779 149.056 20.722 148.799 21.836C148.542 22.95 148.456 24.065 148.456 25.179C148.456 26.293 148.542 27.408 148.799 28.522ZM172.714 14.808C173.45 14.8091 174.178 14.9545 174.857 15.236C175.457 15.493 176.057 15.922 176.485 16.436C176.946 16.9931 177.295 17.6333 177.514 18.322C177.771 19.093 177.857 19.865 177.857 20.808C177.857 21.75 177.771 22.608 177.514 23.293C177.295 23.9817 176.946 24.622 176.485 25.179C176.057 25.693 175.457 26.036 174.857 26.379C174.178 26.6609 173.45 26.8066 172.714 26.808H166.542V35.636H164.828V14.808H172.714ZM172.371 25.008C173.571 25.008 174.514 24.665 175.2 23.979C175.885 23.293 176.314 22.179 176.314 20.808C176.314 19.351 175.971 18.322 175.2 17.636C174.514 16.951 173.571 16.608 172.371 16.608H166.628V25.093H172.371V25.008ZM182.4 14.808L188.486 32.979L194.571 14.808H197.057V35.465H195.343V17.636H195.257L189.257 35.551H187.714L181.714 17.636H181.628V35.551H179.914V14.808H182.4ZM212.486 14.808V16.522H202.029V23.979H211.8V25.693H202.029V33.836H212.658V35.551H200.4V14.808H212.486ZM215.913 14.808L226.199 32.293H226.285V14.808H227.999V35.465H226.113L215.827 17.979H215.742V35.465H214.027V14.808H215.913ZM242.999 14.808V16.522H236.827V35.55H235.113V16.52H229.027V14.807L242.999 14.808Z" fill="black"/>
</svg>
