<svg viewBox="0 0 118 18" fill="none" xmlns="http://www.w3.org/2000/svg"><path d="M2 11.698h1.197c.759-.638 1.238-2.075 1.277-3.592V2.32h8.86v9.38h1.717v4.909h-2.514v-2.475H4.514v2.475H2v-4.91zm4.031 0h4.71V4.794H7.069c0 1.117-.04 2.554-.08 3.592-.04 1.317-.32 2.434-.958 3.312zM15.889 9.862c0-2.793 1.636-4.43 4.31-4.43 2.674 0 4.31 1.637 4.31 4.43 0 2.794-1.636 4.47-4.31 4.47-2.634 0-4.31-1.676-4.31-4.47zm6.186 0c0-1.596-.678-2.354-1.836-2.354-1.117 0-1.876.758-1.876 2.354 0 1.557.759 2.395 1.876 2.395 1.158.04 1.836-.798 1.836-2.395zM26.186 5.632h3.632l2.036 5.668 1.915-5.668h3.632v8.501h-2.355V8.067l-2.195 6.066h-2.275l-2.195-6.066v6.066h-2.235v-8.5h.04zM44.466 4.554c-1.956.2-2.914.958-2.914 2.834.559-.878 1.716-1.357 2.914-1.357 2.035 0 3.472 1.277 3.472 4.07 0 2.595-1.597 4.231-4.31 4.231-2.715 0-4.311-1.476-4.311-4.71V7.948c0-3.912 1.756-5.269 4.87-5.628 1.236-.12 2.274-.24 3.032-.32l.28 2.276c-.838.08-1.916.16-3.033.28zm.997 5.588c0-1.477-.598-2.235-1.756-2.235-1.077 0-1.876.678-1.876 1.756v.439c0 1.516.719 2.275 1.836 2.275 1.118 0 1.796-.838 1.796-2.235zM50.732 17.526h-1.158V15.37h.878c.759 0 1.198-.2 1.477-.838l.04-.08-3.512-8.82h2.754l2.075 5.787 1.796-5.787h2.594l-3.153 8.86c-.838 2.395-1.676 3.034-3.791 3.034zM58.953 5.632h2.475v3.153h.998l1.955-3.153h2.754l-2.594 3.991 2.714 4.51H64.42l-1.955-3.392h-.998v3.392h-2.475v-8.5h-.04zM72.244 2.32H82.62v11.813h-2.634v-9.34h-5.149v9.38h-2.634V2.319h.04zM85.854 5.632h7.024v8.501h-2.514V7.827h-2.275c0 .998-.04 2.435-.08 3.233-.04 2.235-.639 3.113-2.794 3.113h-1.118v-2.155h.52c.837 0 1.077-.28 1.157-1.477.04-1.317.08-3.632.08-4.909zM94.993 5.632h2.475v3.193h1.277c.36-2.155 1.876-3.353 4.191-3.353 2.674 0 4.31 1.637 4.31 4.43 0 2.754-1.636 4.47-4.31 4.47-2.275 0-3.832-1.277-4.19-3.432h-1.278v3.233h-2.475v-8.54zm9.779 4.23c0-1.596-.719-2.354-1.876-2.354-1.118 0-1.876.758-1.876 2.355 0 1.596.758 2.394 1.876 2.394 1.157.04 1.876-.798 1.876-2.394zM116.545 11.339c-.359 1.836-1.676 2.953-3.911 2.953-2.514 0-4.231-1.476-4.231-4.47 0-2.913 1.717-4.43 4.231-4.43 2.235 0 3.592 1.118 3.911 2.954l-2.275.359c-.159-.719-.638-1.317-1.636-1.317-1.117 0-1.756.838-1.756 2.394 0 1.517.639 2.435 1.756 2.435.998 0 1.437-.559 1.596-1.317l2.315.439z" fill="#161616"/></svg>