<?xml version="1.0" encoding="UTF-8"?>
<svg id="_Слой_1" data-name="Слой_1" xmlns="http://www.w3.org/2000/svg" version="1.1" viewBox="0 0 422.3 210.26">
  <!-- Generator: Adobe Illustrator 29.5.1, SVG Export Plug-In . SVG Version: 2.1.0 Build 141)  -->
  <defs>
    <style>
      .st0 {
        fill: #007bfb;
      }

      .st1 {
        fill: #fff;
      }
    </style>
  </defs>
  <path class="st0" d="M238.61,105H47.76c-4.48,0-8.12,3.64-8.12,8.12v49.38c0,4.48,3.63,8.12,8.12,8.12h190.85c4.48,0,8.12-3.64,8.12-8.12v-49.38c0-4.48-3.63-8.12-8.12-8.12"/>
  <polygon class="st1" points="61.58 121.06 93.77 121.06 86.24 157.12 77.12 157.12 82.79 129.81 68.9 129.81 63.17 157.12 54.05 157.12 61.58 121.06"/>
  <path class="st1" d="M108.68,121.06h27.52l-7.53,36.06h-9.17l5.73-27.36h-9.49c-1.01,4.4-2.17,9.86-3.39,15.11-2.28,9.6-6.2,12.25-13.84,12.25h-4.08l1.86-9.01h1.8c3.08,0,4.82-1.33,5.67-4.72,1.38-5.73,3.34-14.48,4.93-22.32"/>
  <path class="st1" d="M184.27,136.28c0-4.51-2.54-7.48-7.16-7.48-6.73,0-10.87,6.63-10.87,13.26,0,4.4,2.81,7.32,7.11,7.32,6.95,0,10.92-6.31,10.92-13.1M156.85,143.44h-5.46l-2.86,13.68h-9.12l7.53-36.06h9.12l-2.86,13.63h4.99c2.49-7.74,8.75-14.16,19.67-14.16,9.92,0,15.8,5.73,15.8,14.69,0,10.92-6.15,22.43-21.05,22.43-9.49,0-15.59-5.41-15.75-14.21"/>
  <path class="st1" d="M223.4,143.71l8.91,1.64c-2.76,7.58-8.38,12.3-18.08,12.3-9.07,0-15.22-5.62-15.22-14.58,0-11.03,6.68-22.54,20.41-22.54,9.28,0,14.42,4.67,14.85,12.3l-9.33,1.54c-.37-3.13-2.28-5.57-6.31-5.57-6.31,0-10.29,6.47-10.29,13.26,0,4.67,2.55,7.32,6.57,7.32s6.95-2.28,8.48-5.67"/>
  <polygon class="st0" points="177.26 39.64 165.04 72.26 152.72 39.64 137.44 39.64 137.44 83.14 146.61 83.14 146.61 50.06 159.37 83.14 169.44 83.14 182.2 49.88 182.2 83.14 192 83.14 192 39.64 177.26 39.64"/>
  <path class="st0" d="M256,39.64h33.71v43.5h-10.43v-34.33h-13.75c-.09,6.11-.27,14.29-.45,18.88-.36,11.41-3.68,15.46-13.48,15.46h-4.68v-9.17h2.61c4.4,0,5.84-1.97,6.11-8.18.27-6.65.36-19.87.36-26.16"/>
  <polygon class="st0" points="343.02 39.64 382.66 39.64 382.66 48.8 368.01 48.8 368.01 83.14 357.67 83.14 357.67 48.8 343.02 48.8 343.02 39.64"/>
  <path class="st0" d="M104.6,75.55c-4.08-.12-6.44-2.48-6.44-5.47,0-2.47,1.11-3.69,2.59-4.54,1.54-.9,3.55-1.21,6.67-1.33,3-.11,5.44-.24,10.09-.24,0,7.43-4.67,11.16-10.47,11.55-.92.06-1.48.05-2.44.02M110.46,38.74h-3.73c-8.97,0-15.76,5.46-17.32,13.57l9.53,1.53c1.3-3.87,4.3-6.5,8.09-6.68,1.22-.06.93-.04,2.15,0,5.63.2,8.17,2.9,8.17,9.57-10.67,0-17.96-.5-23.32,3.03-4.38,2.89-6.26,6.09-6.26,11.15,0,7.32,5.7,13.13,14.9,13.13h1.27c6.5,0,11.74-2.53,13.88-5.58v4.69h9.6s0-26.22,0-26.22c0-10.12-5.42-18.18-16.96-18.18"/>
  <path class="st0" d="M318,47.15c1.09-.06,1.48-.06,2.57,0,4.54.23,9.33,3.18,9.79,9.05h-22.38c.52-5.24,4.73-8.76,10.02-9.05M340.6,64.33v-4.07c0-14.04-8.82-21.3-20.21-21.3h-2.23c-12.25,0-20.07,8.36-20.48,20.15-.06,1.73-.06,2.45,0,4.8.29,11.74,8.51,19.63,19.5,19.92,2.01.06,1.75.05,3.65,0,9.57-.27,16.81-5.79,18.95-13.01l-9.26-1.62c-2.26,4.52-6.58,6.26-10.03,6.43-1.09.06-1.25.04-2.34,0-5.41-.22-10.25-4.46-10.25-10.62v-.69h32.68Z"/>
  <path class="st0" d="M233.83,64.64c-.12,6.15-4.6,10.32-10.61,10.63-1.15.06-1.08.06-2.24,0-6.08-.3-10.49-4.48-10.61-10.63-.06-2.56-.06-4.01,0-6.56.12-6.09,4.53-10.26,10.61-10.56,1.15-.06,1.08-.06,2.24,0,6.01.3,10.49,4.48,10.61,10.63.06,2.56.06,3.94,0,6.5M244.08,57.55c-.23-10.53-8.72-18.59-19.95-18.59h-4.07c-11.22,0-19.71,8.06-19.95,18.65-.06,2.93-.06,4.65,0,7.58.23,10.59,8.73,18.65,19.95,18.65h4.07c11.22,0,19.71-8.06,19.95-18.65.06-2.93.06-4.7,0-7.63"/>
  <path class="st0" d="M71.61,67.79c-1.21,4.03-4.46,6.8-8.81,7.41-1.25.17-2.5.13-3.51-.01-5.42-.76-9.24-4.82-9.35-10.54-.06-2.55-.06-4.01,0-6.56.12-5.76,4.12-9.97,9.64-10.55.32-.04,1.52-.14,2.69-.02,4.65.5,8.14,3.29,9.39,7.52l10.1-1.95c-2.17-8.25-9.65-14.12-19.22-14.12h-2.9c-11.22,0-19.72,8.06-19.95,18.65-.06,2.93-.06,4.65,0,7.58.23,10.59,8.72,18.65,19.95,18.65h2.9c9.76,0,17.31-6.09,19.31-14.64l-10.23-1.4Z"/>
</svg>