<svg id="Layer_1" data-name="Layer 1" xmlns="http://www.w3.org/2000/svg" viewBox="0 0 1932.6 444.2"><defs><style>.cls-1{fill:#fff;}.cls-2{fill:#fcc200;}</style></defs><path d="M1710.5,0H222.1C99.44,0,0,99.44,0,222.1H0C0,344.76,99.44,444.2,222.1,444.2H1710.5c122.66,0,222.1-99.44,222.1-222.1h0C1932.6,99.44,1833.16,0,1710.5,0Z"/><path class="cls-1" d="M425.24,104.9h50.87l48.51,86.84,48.51-86.84H624V343.09H573.13V188.34l-48.51,85.49-48.51-85.49V343.09H425.24V104.9Z"/><path class="cls-1" d="M662.34,104.9H784.11l23.07,238.19H756.3l-5.09-56.71h-56l-5.09,56.71H639.27Zm37.32,130.59H746.8l-7.46-79.7H707.11Z"/><path class="cls-1" d="M822.45,104.9H981.89V271.11H873.33v72H822.45Zm50.88,50.89v64.43H931V155.79Z"/><path class="cls-1" d="M1058.2,248v95h-50.91V104.9h50.91v92.26h23.4L1126,104.9h53.61l-57.36,114.65L1183,343.09h-56l-45.46-95Z"/><path class="cls-1" d="M1193.18,104.9h156v50.89H1244.07v42.39h53.6v50.87h-53.6v42.41h105.14v51.63h-156Z"/><path class="cls-1" d="M1359.39,104.9h159.45v50.89h-54.3v187.3h-50.87V155.79h-54.28Z"/><path class="cls-2" d="M1721.16,197a14.24,14.24,0,0,0-10.27-3.83h-20.32v28.22h20.32a14.47,14.47,0,0,0,10.27-3.72q4-3.7,4-10.33T1721.16,197Z"/><path class="cls-2" d="M1788.48,196.79a15.88,15.88,0,0,0-6-3.31,25.45,25.45,0,0,0-14.47,0,15.22,15.22,0,0,0-5.9,3.31,16.49,16.49,0,0,0-4,5.75,21.06,21.06,0,0,0-1.5,8.36V236a21.06,21.06,0,0,0,1.5,8.36,15.62,15.62,0,0,0,4.06,5.69,16.3,16.3,0,0,0,6,3.26,25.1,25.1,0,0,0,14.3,0,17.06,17.06,0,0,0,6-3.26,15.38,15.38,0,0,0,4.11-5.69A21.06,21.06,0,0,0,1794,236V210.9a21.06,21.06,0,0,0-1.5-8.36A16.22,16.22,0,0,0,1788.48,196.79Z"/><path class="cls-2" d="M1646.21,193.13h-20.33v28.22h20.33a14.49,14.49,0,0,0,10.27-3.72q4-3.7,4-10.33t-4-10.34A14.26,14.26,0,0,0,1646.21,193.13Z"/><path class="cls-2" d="M1708.12,86.68A137.36,137.36,0,1,0,1845.48,224,137.36,137.36,0,0,0,1708.12,86.68Zm-38.63,129.15a25.31,25.31,0,0,1-4.47,7.67,23,23,0,0,1-7.08,5.57,20.61,20.61,0,0,1-9.53,2.15h-22.53v32.17H1615.2v-80h33.21a21.9,21.9,0,0,1,10,2.15,21.23,21.23,0,0,1,7,5.57,23.81,23.81,0,0,1,4.18,7.66,27.23,27.23,0,0,1,1.4,8.54A24.3,24.3,0,0,1,1669.49,215.83Zm55.33,47.56-13.58-32.17h-20.67v32.17h-10.69v-80h33.21a22.79,22.79,0,0,1,10.34,2.15,21.3,21.3,0,0,1,7.09,5.57,22.43,22.43,0,0,1,4.06,7.66,29.57,29.57,0,0,1,1.28,8.54,24.64,24.64,0,0,1-.93,6.68,23.11,23.11,0,0,1-2.79,6.21,26.09,26.09,0,0,1-4.47,5.28,20.37,20.37,0,0,1-6,3.78l15,34.14ZM1805,237.26a26.71,26.71,0,0,1-2.27,11.15,24.45,24.45,0,0,1-6.28,8.47,28.73,28.73,0,0,1-9.43,5.4,34.67,34.67,0,0,1-11.69,1.92,36,36,0,0,1-12-1.92,27.32,27.32,0,0,1-9.36-5.4,23.75,23.75,0,0,1-6-8.47,27.82,27.82,0,0,1-2.16-11.15V209.62a27.51,27.51,0,0,1,2.16-11,24.34,24.34,0,0,1,6-8.53,27.72,27.72,0,0,1,9.36-5.52,35,35,0,0,1,12-2,34.62,34.62,0,0,1,11.87,2,28.4,28.4,0,0,1,9.42,5.52,24.9,24.9,0,0,1,6.17,8.53,27,27,0,0,1,2.21,11Z"/><polygon class="cls-1" points="342.25 105.16 393.17 193.56 393.15 105.16 342.25 105.16"/><polygon class="cls-1" points="342.25 116.71 342.25 244.01 393.15 204.84 342.25 116.71"/><polygon class="cls-1" points="342.25 251.96 393.17 213.03 393.17 274.57 342.25 251.96"/><polygon class="cls-1" points="341.86 258.9 393.15 281.75 342.25 333.55 341.86 258.9"/><polygon class="cls-1" points="393.17 290.21 342.25 343.41 393.15 343.41 393.17 290.21"/><polygon class="cls-1" points="284.55 105.16 233.63 156.08 233.63 105.16 284.55 105.16"/><polygon class="cls-1" points="233.83 163.94 284.55 191.19 284.55 114.51 233.83 163.94"/><polygon class="cls-1" points="233.83 170.37 284.55 197.48 233.83 222 233.83 170.37"/><polygon class="cls-1" points="284.55 244.01 233.83 228.6 284.55 204.74 284.55 244.01"/><polygon class="cls-1" points="233.83 331.69 284.55 251.29 233.63 235.2 233.83 331.69"/><polygon class="cls-1" points="284.55 261.44 233.63 343.41 284.55 343.41 284.55 261.44"/><polygon class="cls-1" points="289.96 204.56 289.96 248.3 336.52 248.3 289.96 204.56"/><polygon class="cls-1" points="289.96 197.38 336.52 197.27 336.35 239.63 289.96 197.38"/></svg>