<svg width="10" height="10" viewBox="0 0 10 10" fill="none" xmlns="http://www.w3.org/2000/svg">
<g clip-path="url(#clip0_340_752)">
<mask id="mask0_340_752" style="mask-type:luminance" maskUnits="userSpaceOnUse" x="-1" y="-1" width="12" height="12">
<path d="M7.5401 -0.714355H2.46074C0.707451 -0.714355 -0.713867 0.706963 -0.713867 2.46025V7.53961C-0.713867 9.2929 0.707451 10.7142 2.46074 10.7142H7.5401C9.29339 10.7142 10.7147 9.2929 10.7147 7.53961V2.46025C10.7147 0.706963 9.29339 -0.714355 7.5401 -0.714355Z" fill="white"/>
</mask>
<g mask="url(#mask0_340_752)">
<path d="M5.41699 4.58325L9.16699 0.833252M9.16699 0.833252H6.94044M9.16699 0.833252V3.05981" stroke="white" stroke-linecap="round" stroke-linejoin="round"/>
<path d="M9.16732 4.99992C9.16732 6.96408 9.16732 7.9462 8.55715 8.55642C7.94693 9.16658 6.96482 9.16658 5.00065 9.16658C3.03647 9.16658 2.05437 9.16658 1.44418 8.55642C0.833984 7.9462 0.833984 6.96408 0.833984 4.99992C0.833984 3.03574 0.833984 2.05364 1.44418 1.44345C2.05437 0.833252 3.03647 0.833252 5.00065 0.833252" stroke="white" stroke-linecap="round"/>
</g>
</g>
<defs>
<clipPath id="clip0_340_752">
<rect width="10" height="10" fill="white"/>
</clipPath>
</defs>
</svg>
